<svg xmlns="http://www.w3.org/2000/svg" fill="none" viewBox="-1.5 -1.5 48 48" height="48" width="48"><path stroke="#000000" stroke-linecap="round" stroke-linejoin="round" d="M44.0625 29.008125a0.924375 0.924375 0 0 0 -0.7631249999999999 -0.9375 5.625 5.625 0 0 1 0 -11.14875 0.9225 0.9225 0 0 0 0.7631249999999999 -0.9375V9.375a0.9375 0.9375 0 0 0 -0.9375 -0.9375H1.875a0.9375 0.9375 0 0 0 -0.9375 0.9375v6.63a0.9375 0.9375 0 0 0 0.804375 0.92625 5.625 5.625 0 0 1 0 11.137500000000001 0.9375 0.9375 0 0 0 -0.804375 0.92625V35.625a0.9375 0.9375 0 0 0 0.9375 0.9375h41.25a0.9375 0.9375 0 0 0 0.9375 -0.9375v-6.616875Z" stroke-width="3"></path><path stroke="#000000" stroke-linecap="round" stroke-linejoin="round" d="M28.125 14.0625H13.125a0.9375 0.9375 0 0 0 -0.9375 0.9375v15a0.9375 0.9375 0 0 0 0.9375 0.9375h15a0.9375 0.9375 0 0 0 0.9375 -0.9375V15a0.9375 0.9375 0 0 0 -0.9375 -0.9375Z" stroke-width="3"></path><path stroke="#000000" stroke-linecap="round" stroke-linejoin="round" d="M17.8125 19.6875h5.625" stroke-width="3"></path><path stroke="#000000" stroke-linecap="round" stroke-linejoin="round" d="M17.8125 25.3125h5.625" stroke-width="3"></path><path stroke="#000000" d="M35.15625 13.59375a0.46875 0.46875 0 1 1 0 -0.9375" stroke-width="3"></path><path stroke="#000000" d="M35.15625 13.59375a0.46875 0.46875 0 1 0 0 -0.9375" stroke-width="3"></path><path stroke="#000000" d="M35.15625 19.21875a0.46875 0.46875 0 1 1 0 -0.9375" stroke-width="3"></path><path stroke="#000000" d="M35.15625 19.21875a0.46875 0.46875 0 1 0 0 -0.9375" stroke-width="3"></path><g><path stroke="#000000" d="M35.15625 26.71875a0.46875 0.46875 0 1 1 0 -0.9375" stroke-width="3"></path><path stroke="#000000" d="M35.15625 26.71875a0.46875 0.46875 0 1 0 0 -0.9375" stroke-width="3"></path></g><g><path stroke="#000000" d="M35.15625 32.34375a0.46875 0.46875 0 1 1 0 -0.9375" stroke-width="3"></path><path stroke="#000000" d="M35.15625 32.34375a0.46875 0.46875 0 1 0 0 -0.9375" stroke-width="3"></path></g></svg>
